# xmcd
#
# Track frame offsets: 
#        150
#        15657
#        27785
#        39705
#        52222
#        66652
#        80805
#        94687
#        106675
#        122667
#
# Disc length: 1803 seconds
#
# Revision: 2
# Processed by: cddbd v1.5PL3 Copyright (c) Steve Scherf et al.
# Submitted via: ExactAudioCopy v0.90b4
#
DISCID=8507090a
DTITLE=Keith Whitley - Lassoes 'N Spurs
DYEAR=1900
DGENRE=Country
TTITLE0=Turn Me To Love
TTITLE1=A Hard Act To Follow
TTITLE2=Lady's Choice
TTITLE3=Brother Juke Box
TTITLE4=Would These Arms Be In Your Way
TTITLE5=Honky Tonk Heart
TTITLE6=I Wonder Where You Are Tonight
TTITLE7=I've Got The Heart For You
TTITLE8=Talk To Me Texas
TTITLE9=It's All Coming Back To Me Now
EXTD=
EXTT0=
EXTT1=
EXTT2=
EXTT3=
EXTT4=
EXTT5=
EXTT6=
EXTT7=
EXTT8=
EXTT9=
PLAYORDER=
